<?xml version="1.0" encoding="UTF-8" standalone="no"?>
<!-- Created with Inkscape (http://www.inkscape.org/) -->

<svg
   xmlns:dc="http://purl.org/dc/elements/1.1/"
   xmlns:cc="http://creativecommons.org/ns#"
   xmlns:rdf="http://www.w3.org/1999/02/22-rdf-syntax-ns#"
   xmlns:svg="http://www.w3.org/2000/svg"
   xmlns="http://www.w3.org/2000/svg"
   xmlns:xlink="http://www.w3.org/1999/xlink"
   xmlns:sodipodi="http://sodipodi.sourceforge.net/DTD/sodipodi-0.dtd"
   xmlns:inkscape="http://www.inkscape.org/namespaces/inkscape"
   width="210.7179"
   height="162.2914"
   id="svg2"
   version="1.1"
   inkscape:version="0.48.4 r9939"
   sodipodi:docname="elumen-svg-logo.svg">
  <defs
     id="defs4">
    <linearGradient
       id="linearGradient4412">
      <stop
         style="stop-color:#ffffff;stop-opacity:1;"
         offset="0"
         id="stop4414" />
      <stop
         style="stop-color:#ffffff;stop-opacity:0;"
         offset="1"
         id="stop4416" />
    </linearGradient>
    <linearGradient
       id="linearGradient2991">
      <stop
         style="stop-color:#ff9900;stop-opacity:1;"
         offset="0"
         id="stop2993" />
      <stop
         style="stop-color:#ed7401;stop-opacity:0;"
         offset="1"
         id="stop2995" />
    </linearGradient>
    <linearGradient
       inkscape:collect="always"
       xlink:href="#linearGradient2991"
       id="linearGradient2997"
       x1="397.00003"
       y1="257.37213"
       x2="194.92673"
       y2="257.37213"
       gradientUnits="userSpaceOnUse"
       gradientTransform="matrix(1.6493733,0,0,0.10696822,-110.32375,248.32901)" />
    <linearGradient
       inkscape:collect="always"
       xlink:href="#linearGradient2991-7"
       id="linearGradient2997-1"
       x1="397.00003"
       y1="257.37213"
       x2="194.92673"
       y2="257.37213"
       gradientUnits="userSpaceOnUse"
       gradientTransform="matrix(1,0,0,0.10696822,0,164.89041)" />
    <linearGradient
       id="linearGradient2991-7">
      <stop
         style="stop-color:#ffff66;stop-opacity:1;"
         offset="0"
         id="stop2993-4" />
      <stop
         style="stop-color:#ed7401;stop-opacity:0;"
         offset="1"
         id="stop2995-0" />
    </linearGradient>
    <linearGradient
       y2="257.37213"
       x2="194.92673"
       y1="257.37213"
       x1="397.00003"
       gradientTransform="matrix(1.6493733,0,0,0.10696822,-111.87948,262.59463)"
       gradientUnits="userSpaceOnUse"
       id="linearGradient3031"
       xlink:href="#linearGradient2991-7"
       inkscape:collect="always" />
    <radialGradient
       inkscape:collect="always"
       xlink:href="#linearGradient4412"
       id="radialGradient4418"
       cx="1156"
       cy="178.36218"
       fx="1156"
       fy="178.36218"
       r="142.60001"
       gradientTransform="matrix(1,0,0,1.0280505,0,-5.0031468)"
       gradientUnits="userSpaceOnUse" />
  </defs>
  <sodipodi:namedview
     id="base"
     pagecolor="#ffffff"
     bordercolor="#666666"
     borderopacity="1.0"
     inkscape:pageopacity="0.0"
     inkscape:pageshadow="2"
     inkscape:zoom="1.4142136"
     inkscape:cx="-17.266177"
     inkscape:cy="34.771871"
     inkscape:document-units="px"
     inkscape:current-layer="star"
     showgrid="false"
     inkscape:window-width="1366"
     inkscape:window-height="744"
     inkscape:window-x="0"
     inkscape:window-y="24"
     inkscape:window-maximized="1"
     fit-margin-top="0"
     fit-margin-left="0"
     fit-margin-right="0"
     fit-margin-bottom="0" />
  <metadata
     id="metadata7">
    <rdf:RDF>
      <cc:Work
         rdf:about="">
        <dc:format>image/svg+xml</dc:format>
        <dc:type
           rdf:resource="http://purl.org/dc/dcmitype/StillImage" />
        <dc:title></dc:title>
      </cc:Work>
    </rdf:RDF>
  </metadata>
  <g
     inkscape:groupmode="layer"
     id="background"
     inkscape:label="background"
     style="display:inline"
     transform="translate(-33.03828,-38.180779)">
    <rect
       style="color:#000000;fill:#0072c6;fill-opacity:1;fill-rule:nonzero;stroke:none;marker:none;visibility:visible;display:inline;overflow:visible;enable-background:accumulate"
       id="background--rectangle"
       width="210.7179"
       height="162.2914"
       x="33.03828"
       y="38.180779" />
  </g>
  <g
     inkscape:groupmode="layer"
     id="star"
     inkscape:label="star"
     style="display:inline"
     transform="translate(-33.03828,-38.180779)">
    <path
       style="fill:#ff9900;fill-opacity:1;stroke:none"
       d="m 129.5574,108.50613 -7.4644,14.17713 11.6531,-11.49207 0.5371,16.53999 4.3498,-15.89558 8.7533,14.49934 -4.4035,-16.53998 14.3382,8.10889 -11.1162,-11.76058 17.4529,0.1074 -16.4863,-4.94051 14.6605,-8.431098 -16.6474,4.45721 8.6996,-15.46596 -12.5661,12.24389 -0.5907,-17.39921 -4.4572,16.80849 -8.6459,-14.87525 3.8665,16.7548 -15.0364,-8.69961 12.0828,12.13649 -16.8085,0.537 16.5937,4.403498 -14.6067,9.18292 z"
       id="star--path"
       inkscape:connector-curvature="0" />
  </g>
  <g
     inkscape:label="company-name"
     inkscape:groupmode="layer"
     id="company-name"
     style="display:inline"
     transform="translate(-33.03828,-38.180779)">
    <path
       style="fill:#ff9900;fill-opacity:1;stroke:none"
       d="m 88.5688,158.62781 c 0,0 6.1451,-1.76116 7.9087,-4.95893 1.7635,-3.19777 3.3398,-9.197 -0.8056,-9.34402 -4.1453,-0.14702 -10.9498,8.56999 -10.5254,15.09005 0.4244,6.52004 7.937,6.76065 9.3977,6.82006 1.4607,0.0594 3.3891,-0.42313 4.5783,-1.23105 1.3342,-0.90642 1.8459,-2.15366 1.8459,-2.15366 0,0 -1.8926,1.3917 -7.5769,1.3099 -5.6842,-0.0818 -6.0425,-4.36557 -5.3164,-8.38029 0.7261,-4.01471 5.9647,-9.32748 7.3557,-8.84532 1.391,0.48215 0.4891,4.48269 -1.37,7.13673 -2.0887,2.98181 -5.492,4.55653 -5.492,4.55653 z"
       id="company-name--e-1"
       inkscape:connector-curvature="0"
       sodipodi:nodetypes="czzzzsczzzsc" />
    <path
       style="fill:#ffffff;fill-opacity:1;stroke:none"
       d="m 105.3416,167.55363 c 0.186,-0.62139 -0.793,-13.52614 -0.9111,-26.27628 -0.1241,-13.39823 -0.1521,-26.35363 -0.1521,-26.35363 0,0 -2.8866,18.88387 -2.5062,33.41582 0.3804,14.53195 0.3762,18.28971 1.1392,19.44193 0.763,1.15221 2.2442,0.39354 2.4302,-0.22784 z"
       id="company-name--l"
       inkscape:connector-curvature="0"
       sodipodi:nodetypes="zsczzz" />
    <path
       style="fill:#ffffff;fill-opacity:1;stroke:none"
       d="m 108.3035,144.16255 c 0,0 0.9828,5.44577 1.1919,10.5693 0.2539,6.22078 1.0601,9.01232 2.6813,9.10047 1.6212,0.0882 3.1187,-11.93706 3.2656,-13.6701 0.1469,-1.73305 0.8069,-2.53144 1.5085,-2.31983 0.5259,0.15863 1.1649,2.09023 1.2255,4.14251 0.061,2.05228 1.5456,6.04593 3.4027,8.61352 1.727,2.38767 3.7553,3.40865 5.7867,3.91741 -4.573,2.92551 -7.2991,-1.53593 -10.1007,-5.69588 0,0 -0.6165,8.63066 -4.9364,8.65774 -3.163,0.0198 -4.6787,-5.35929 -4.7033,-10.78388 -0.026,-5.66774 0.6782,-12.53126 0.6782,-12.53126 z"
       id="company-name--u"
       inkscape:connector-curvature="0"
       sodipodi:nodetypes="cszzszsccssc" />
    <path
       style="fill:#ffffff;fill-opacity:1;stroke:none"
       d="m 130.1756,141.58043 -1.1391,21.18866 c -0.01,3.53747 1.0278,3.49901 2.4302,2.20241 1.2266,-5.17583 2.2205,-10.06087 4.6327,-12.07526 2.387,0.68202 0.8811,12.02088 3.7213,11.84742 2.8401,-0.17346 1.1583,-15.19125 3.7213,-16.02439 3.0608,-0.73433 2.0479,15.15539 4.0251,14.80927 1.936,-0.33893 0.6075,-11.01203 0.6075,-11.01203 -0.9962,-6.25132 -2.9378,-7.15082 -4.7845,-6.98694 -1.8467,0.16388 -3.4919,3.46785 -3.7973,6.30344 -0.7987,-1.5065 -1.6997,-3.03414 -3.4175,-2.80997 -1.7178,0.22418 -3.1148,4.11867 -4.2529,6.37939 0,0 -0.3504,-8.41303 -0.7829,-10.70529 -0.4324,-2.29227 -0.9639,-3.11671 -0.9639,-3.11671 z"
       id="company-name--m"
       inkscape:connector-curvature="0"
       sodipodi:nodetypes="cccczcsczczczc" />
    <path
       style="fill:#ffffff;fill-opacity:1;stroke:none"
       d="m 161.6169,144.54229 c -2.5972,-0.39311 -10.054,6.35773 -10.3285,12.98659 -0.2745,6.62886 3.5532,8.5143 8.8096,8.88558 3.5539,0.0166 5.9978,-1.24621 6.6832,-3.79726 -1.8075,1.29108 -4.6098,1.51382 -6.5313,1.59485 -1.9215,0.0811 -6.6249,-0.968 -6.4553,-5.77182 0.1695,-4.80382 2.5717,-9.6671 7.3666,-11.77148 1.8712,2.81923 1.0451,6.2645 -6.3034,11.69553 3.394,-0.36578 6.6093,-2.62818 8.278,-5.77183 1.6687,-3.14364 1.0783,-7.65706 -1.5189,-8.05016 z"
       id="company-name--e-2"
       inkscape:connector-curvature="0"
       sodipodi:nodetypes="zzcczzcczz" />
    <path
       style="fill:#ffffff;fill-opacity:1;stroke:none"
       d="m 170.2746,144.23851 c -1.045,1.46846 -1.3607,3.81783 -1.3674,6.53127 -0.019,7.69273 2.0607,14.94164 3.6458,14.88523 2.7419,-0.006 4.033,-15.24411 6.911,-15.49279 2.8779,-0.24867 4.3852,13.6618 6.7591,13.13849 0.8779,-0.0678 1.0238,-1.97279 0.7759,-4.48239 -0.1573,-1.59262 -0.2917,-3.20193 -1.0797,-5.46641 -1.2279,-2.64529 -2.8988,-6.95284 -5.6959,-6.68316 -2.797,0.26968 -4.2107,1.93173 -5.5547,5.42083 -0.9088,2.35903 -1.4551,4.956 -2.6473,5.21147 -1.2872,-2.04716 -1.2763,-10.66195 -1.7468,-13.06254 z"
       id="company-name--n"
       inkscape:connector-curvature="0"
       sodipodi:nodetypes="csczcsczscc" />
    <text
       xml:space="preserve"
       style="font-size:40px;font-style:normal;font-variant:normal;font-weight:normal;font-stretch:normal;text-align:start;line-height:125%;letter-spacing:0px;word-spacing:0px;writing-mode:lr-tb;text-anchor:start;fill:#000000;fill-opacity:1;stroke:none;font-family:Cordia New;-inkscape-font-specification:Cordia New"
       x="898.02563"
       y="421.62292"
       id="text4072"
       sodipodi:linespacing="125%"><tspan
         sodipodi:role="line"
         id="tspan4074"
         x="898.02563"
         y="421.62292" /></text>
    <flowRoot
       xml:space="preserve"
       id="flowRoot4099"
       style="font-size:40px;font-style:normal;font-variant:normal;font-weight:normal;font-stretch:normal;text-align:start;line-height:125%;letter-spacing:0px;word-spacing:0px;writing-mode:lr-tb;text-anchor:start;fill:#000000;fill-opacity:1;stroke:none;font-family:Cordia New;-inkscape-font-specification:Cordia New"><flowRegion
         id="flowRegion4101"><rect
           id="rect4103"
           width="145.664"
           height="48.08326"
           x="857.01343"
           y="541.83112" /></flowRegion><flowPara
         id="flowPara4105" /></flowRoot>  </g>
</svg>
